<svg width="576" height="421" viewBox="0 0 576 421" fill="none" xmlns="http://www.w3.org/2000/svg">
<rect x="121.412" y="58.7871" width="400.693" height="2.93333" fill="white"/>
<rect x="121.412" y="79.9072" width="400.693" height="2.93333" fill="white"/>
<rect x="121.412" y="101.027" width="400.693" height="2.93333" fill="white"/>
<rect x="121.412" y="122.147" width="400.693" height="2.93333" fill="white"/>
<rect x="121.412" y="143.268" width="400.693" height="2.93333" fill="white"/>
<rect x="121.412" y="164.388" width="400.693" height="2.93333" fill="white"/>
<rect x="121.412" y="185.507" width="400.693" height="2.93333" fill="white"/>
<rect x="121.412" y="206.627" width="400.693" height="2.93333" fill="white"/>
<rect x="121.412" y="227.747" width="400.693" height="2.93333" fill="white"/>
<rect x="121.412" y="248.867" width="400.693" height="2.93333" fill="white"/>
<rect x="121.412" y="269.987" width="400.693" height="2.93333" fill="white"/>
<rect x="121.412" y="291.106" width="400.693" height="2.93333" fill="white"/>
<rect x="121.412" y="312.228" width="400.693" height="2.93333" fill="white"/>
<rect x="121.412" y="333.347" width="400.693" height="2.93333" fill="white"/>
<rect x="121.412" y="354.468" width="400.693" height="2.93333" fill="white"/>
<rect x="121.412" y="375.587" width="400.693" height="2.93333" fill="white"/>
<rect x="121.412" y="396.707" width="400.693" height="2.93333" fill="white"/>
<rect x="121.412" y="417.827" width="400.693" height="2.93333" fill="white"/>
<path d="M204 41.6357L215.066 0L214.964 43.0761L236.434 5.72766L225.182 47.3125L255.583 16.7763L233.96 54.0399L271.224 32.4172L240.688 62.8178L282.289 51.5828L244.924 73.0361L288 72.9514L246.364 84L288 95.0656L244.924 94.9639L282.289 116.434L240.688 105.182L271.224 135.583L233.96 113.96L255.583 151.224L225.182 120.688L236.434 162.289L214.964 124.924L215.066 168L204 126.364L192.951 168L193.036 124.924L171.583 162.289L182.818 120.688L152.417 151.224L174.04 113.96L136.776 135.583L167.312 105.182L125.728 116.434L163.076 94.9639L120 95.0656L161.636 84L120 72.9514L163.076 73.0361L125.728 51.5828L167.312 62.8178L136.776 32.4172L174.04 54.0399L152.417 16.7763L182.818 47.3125L171.583 5.72766L193.036 43.0761L192.951 0L204 41.6357Z" fill="#DE4E27"/>
<path d="M24.9559 162.124C71.9685 144.579 80.0144 152.712 49.0934 186.521C18.1723 220.331 26.2182 228.464 73.2308 210.919C120.244 193.374 128.289 201.507 97.3683 235.317C66.4473 269.127 74.4931 277.259 121.506 259.714C168.518 242.17 176.564 250.302 145.643 284.112C114.722 317.922 122.768 326.054 169.781 308.51C216.793 290.965 224.839 299.097 193.918 332.907C162.997 366.717 171.043 374.85 218.056 357.305" stroke="#5F9A98" stroke-width="6.45333"/>
<path d="M387.387 208.132C426.764 194.267 466.109 181.409 505.446 169.622C515.987 193.813 525.646 218.475 534.556 243.78C543.209 268.357 550.868 293.05 557.674 317.808C557.754 318.098 557.873 318.365 558.024 318.606L558.39 319.646C520.328 335.105 481.527 349.759 442.209 363.603C405.137 376.656 368.034 388.839 330.934 400.076C326.971 401.276 322.752 399.316 321.132 395.526C311.722 373.51 303.027 351.093 294.948 328.147C286.868 305.2 279.58 282.224 273.116 259.154C272.004 255.186 274.063 251.015 277.904 249.466C313.799 234.992 350.324 221.182 387.387 208.132Z" fill="#F8F3EB" stroke="#EC6F35" stroke-width="5.86667"/>
<path d="M473.118 265.528C473.992 264.507 473.408 262.917 472.066 262.667L354.313 240.706C352.971 240.455 351.878 241.732 352.346 243.004L393.366 354.591C393.833 355.863 395.51 356.176 396.385 355.154L473.118 265.528Z" fill="#DE4E27"/>
<path d="M403.274 51.7573C402.891 50.8023 413.134 35.4921 414.474 34.6123C418.569 31.9316 426.503 37.1021 426.228 41.6722C426.123 43.3938 416.288 59.0728 415.275 59.3752L403.275 51.7516L403.274 51.7573Z" fill="#DD4E28"/>
<path d="M224.073 353.353C224.936 355.08 217.344 361.959 215.654 363.42C214.222 364.651 214.831 366.488 211.807 364.955L216.846 350.191L224.073 353.353Z" fill="#DD4E28"/>
<path d="M360.639 180.044C354.294 183.854 353.508 172.371 357.855 170.159C359.532 169.309 362.312 170.454 363.473 168.235C374.879 149.738 387.639 131.436 397.518 112.055C400.367 106.461 405.955 98.5959 402.087 92.6299C382.796 128.486 360.675 162.725 338.931 197.101L310.668 179.78C329.407 150.681 347.652 121.168 367.676 92.9291C375.06 82.5088 383.056 70.9776 391.27 61.2793C393.047 59.1847 396.705 53.8841 399.798 54.6233C401.077 54.9259 414.17 63.6159 414.586 64.5852C416.025 67.9399 411.12 74.0164 410.213 77.3453C411.74 79.8208 414.33 81.2141 414.557 84.4343C414.982 90.6255 406.551 106.16 403.493 112.349C393.794 131.975 379.84 157.932 365.746 174.46C364.77 175.606 361.575 179.493 360.636 180.055L360.639 180.044Z" fill="#1E3F54"/>
<path d="M327.436 214.233C301.895 252.682 276.332 292.179 247.535 328.271C244.061 332.625 223.287 358.305 219.535 358.241C218.289 358.219 216.639 356.596 215.387 356.161C214.2 354.841 220.826 339.126 221.971 336.443C226.4 326.062 232.032 315.468 237.241 305.428C256.413 268.477 278.238 232.598 300.189 197.373L327.436 214.233Z" fill="#1E3F54"/>
<path d="M336.412 200.152L329.663 211.198L303.1 194.715C302.49 194.326 302.31 193.912 302.471 193.196C302.607 192.607 308.417 182.821 309.001 182.979L336.405 200.156L336.412 200.152Z" fill="#1E3F54"/>
</svg>
