<svg width="152" height="61" viewBox="0 0 152 61" fill="none" xmlns="http://www.w3.org/2000/svg">
<path d="M0.716106 26V9.03758H4.85978V26H0.716106ZM7.15463 26L8.80241 9.03758H13.6246L16.387 20.0147L19.1252 9.03758H23.9474L25.5952 26H21.5969L21.0153 15.4106L20.9911 14.9987H20.9669L20.6761 16.4768L18.3741 26H14.3758L11.8556 15.4106L11.7587 14.9987H11.7345V16.5253L11.1771 26H7.15463ZM26.7701 26L31.0834 9.03758H36.9718L41.3093 26H37.1656L36.6083 23.7222H31.4469L30.8895 26H26.7701ZM32.2465 20.4266H35.8086L34.0397 13.0843L32.2465 20.4266ZM50.5515 26.2423C45.899 26.2423 41.828 23.1406 41.828 17.5188C41.828 12.0181 45.7294 8.79526 50.5515 8.79526C54.5013 8.79526 57.4819 11.1942 58.5723 14.0294L54.5256 15.5318C53.9198 13.9082 52.6597 12.7693 50.7454 12.7693C48.298 12.7693 46.3594 14.514 46.3594 17.5188C46.3594 20.257 48.1283 22.2683 50.7454 22.2683C52.587 22.2683 53.9682 21.3475 54.5013 19.942H50.5515V16.9615H59.1054V17.9307C59.1054 22.341 55.7614 26.2423 50.5515 26.2423ZM61.4571 26V9.03758H65.6008V26H61.4571ZM68.0168 26V9.03758H72.3543L77.9519 19.4331L78.1457 19.7966H78.17L78.073 18.2942V9.03758H82.1925V26H77.8792L72.2574 15.5802L72.0635 15.2167H72.0393L72.1362 16.7191V26H68.0168ZM84.61 26V9.03758H94.5209V12.527H88.8506V15.6772H94.5209V18.8758H88.8506V22.5106H94.5209V26H84.61Z" fill="#242424"/>
<path d="M53.2445 50.1084V33.146H62.5496V35.4723H56.0311V39.9794H62.5496V42.1361H56.0311V50.1084H53.2445ZM71.8853 50.3507C68.4444 50.375 65.2942 48.606 65.2942 44.0746V33.146H68.0567V43.3719C68.0567 46.0859 69.5106 47.7821 71.8853 47.7821C74.2601 47.7821 75.714 46.0859 75.714 43.3719V33.146H78.4764V44.0746C78.4764 48.606 75.3263 50.3265 71.8853 50.3507ZM81.4852 50.1084V33.146H84.3203L91.2507 45.5285L91.4203 45.8193H91.4445L91.3718 44.2927V33.146H94.0858V50.1084H91.2507L84.3203 37.6774L84.1507 37.3866H84.1265L84.1992 38.9132V50.1084H81.4852Z" fill="#242424"/>
<circle cx="44.742" cy="37.742" r="4.74204" fill="#FC4F05"/>
<circle cx="130.5" cy="29.5" r="21.5" fill="url(#paint0_radial_66_2365)"/>
<defs>
<radialGradient id="paint0_radial_66_2365" cx="0" cy="0" r="1" gradientUnits="userSpaceOnUse" gradientTransform="translate(121 18) rotate(49.808) scale(37.9638)">
<stop stop-color="white"/>
<stop offset="0.282493" stop-color="#FAF565"/>
<stop offset="0.583853" stop-color="#D43E32"/>
<stop offset="0.835604" stop-color="#933472"/>
<stop offset="1" stop-color="#4482BF"/>
</radialGradient>
</defs>
</svg>
